<mxfile host="app.diagrams.net" agent="Mozilla/5.0 (Windows NT 10.0; Win64; x64) AppleWebKit/537.36 (KHTML, like Gecko) Chrome/141.0.0.0 Safari/537.36" version="28.2.7">
  <diagram name="PÃ¡gina-1" id="JG0cT5yQWGBZO5NPhq1r">
    <mxGraphModel dx="2222" dy="888" grid="1" gridSize="10" guides="1" tooltips="1" connect="1" arrows="1" fold="1" page="1" pageScale="1" pageWidth="827" pageHeight="1169" math="0" shadow="0">
      <root>
        <mxCell id="0" />
        <mxCell id="1" parent="0" />
        <mxCell id="LnXm__7tYP4RGAGag-Qh-1" value="ALUNO" style="whiteSpace=wrap;html=1;align=center;fillColor=#dae8fc;strokeColor=#6c8ebf;labelBackgroundColor=none;" vertex="1" parent="1">
          <mxGeometry x="-70" y="120" width="100" height="40" as="geometry" />
        </mxCell>
        <mxCell id="LnXm__7tYP4RGAGag-Qh-8" style="rounded=0;orthogonalLoop=1;jettySize=auto;html=1;exitX=0.5;exitY=1;exitDx=0;exitDy=0;entryX=0.25;entryY=0;entryDx=0;entryDy=0;endArrow=none;endFill=0;" edge="1" parent="1" source="LnXm__7tYP4RGAGag-Qh-3" target="LnXm__7tYP4RGAGag-Qh-1">
          <mxGeometry relative="1" as="geometry" />
        </mxCell>
        <mxCell id="LnXm__7tYP4RGAGag-Qh-3" value="NomeAluno" style="ellipse;whiteSpace=wrap;html=1;align=center;labelBackgroundColor=none;fillColor=#e1d5e7;strokeColor=#9673a6;" vertex="1" parent="1">
          <mxGeometry x="-150" y="40" width="100" height="40" as="geometry" />
        </mxCell>
        <mxCell id="LnXm__7tYP4RGAGag-Qh-9" style="edgeStyle=none;shape=connector;rounded=0;orthogonalLoop=1;jettySize=auto;html=1;exitX=0.5;exitY=1;exitDx=0;exitDy=0;entryX=0.75;entryY=0;entryDx=0;entryDy=0;strokeColor=default;align=center;verticalAlign=middle;fontFamily=Helvetica;fontSize=11;fontColor=default;labelBackgroundColor=default;endArrow=none;endFill=0;" edge="1" parent="1" source="LnXm__7tYP4RGAGag-Qh-4" target="LnXm__7tYP4RGAGag-Qh-1">
          <mxGeometry relative="1" as="geometry" />
        </mxCell>
        <mxCell id="LnXm__7tYP4RGAGag-Qh-4" value="DataNasc" style="ellipse;whiteSpace=wrap;html=1;align=center;labelBackgroundColor=none;fillColor=#e1d5e7;strokeColor=#9673a6;" vertex="1" parent="1">
          <mxGeometry x="10" y="40" width="100" height="40" as="geometry" />
        </mxCell>
        <mxCell id="LnXm__7tYP4RGAGag-Qh-7" style="rounded=0;orthogonalLoop=1;jettySize=auto;html=1;exitX=1;exitY=0.5;exitDx=0;exitDy=0;entryX=0;entryY=0.5;entryDx=0;entryDy=0;endArrow=none;endFill=0;" edge="1" parent="1" source="LnXm__7tYP4RGAGag-Qh-6" target="LnXm__7tYP4RGAGag-Qh-1">
          <mxGeometry relative="1" as="geometry" />
        </mxCell>
        <mxCell id="LnXm__7tYP4RGAGag-Qh-6" value="NumAluno" style="ellipse;whiteSpace=wrap;html=1;align=center;fontStyle=4;labelBackgroundColor=none;fillColor=#e1d5e7;strokeColor=#9673a6;" vertex="1" parent="1">
          <mxGeometry x="-230" y="120" width="100" height="40" as="geometry" />
        </mxCell>
        <mxCell id="LnXm__7tYP4RGAGag-Qh-10" value="CURSO" style="whiteSpace=wrap;html=1;align=center;fillColor=#dae8fc;strokeColor=#6c8ebf;labelBackgroundColor=none;" vertex="1" parent="1">
          <mxGeometry x="-130" y="280" width="100" height="40" as="geometry" />
        </mxCell>
        <mxCell id="LnXm__7tYP4RGAGag-Qh-15" style="edgeStyle=none;shape=connector;rounded=0;orthogonalLoop=1;jettySize=auto;html=1;exitX=1;exitY=1;exitDx=0;exitDy=0;entryX=0;entryY=0.5;entryDx=0;entryDy=0;strokeColor=default;align=center;verticalAlign=middle;fontFamily=Helvetica;fontSize=11;fontColor=default;labelBackgroundColor=default;endArrow=none;endFill=0;" edge="1" parent="1" source="LnXm__7tYP4RGAGag-Qh-12" target="LnXm__7tYP4RGAGag-Qh-10">
          <mxGeometry relative="1" as="geometry" />
        </mxCell>
        <mxCell id="LnXm__7tYP4RGAGag-Qh-12" value="CodCurso" style="ellipse;whiteSpace=wrap;html=1;align=center;fontStyle=4;labelBackgroundColor=none;fillColor=#e1d5e7;strokeColor=#9673a6;" vertex="1" parent="1">
          <mxGeometry x="-250" y="260" width="100" height="40" as="geometry" />
        </mxCell>
        <mxCell id="LnXm__7tYP4RGAGag-Qh-14" style="edgeStyle=none;shape=connector;rounded=0;orthogonalLoop=1;jettySize=auto;html=1;exitX=1;exitY=0;exitDx=0;exitDy=0;entryX=0.5;entryY=1;entryDx=0;entryDy=0;strokeColor=default;align=center;verticalAlign=middle;fontFamily=Helvetica;fontSize=11;fontColor=default;labelBackgroundColor=default;endArrow=none;endFill=0;" edge="1" parent="1" source="LnXm__7tYP4RGAGag-Qh-13" target="LnXm__7tYP4RGAGag-Qh-10">
          <mxGeometry relative="1" as="geometry" />
        </mxCell>
        <mxCell id="LnXm__7tYP4RGAGag-Qh-13" value="NomCurso" style="ellipse;whiteSpace=wrap;html=1;align=center;fontFamily=Helvetica;fontSize=11;labelBackgroundColor=none;fillColor=#e1d5e7;strokeColor=#9673a6;" vertex="1" parent="1">
          <mxGeometry x="-200" y="360" width="100" height="40" as="geometry" />
        </mxCell>
        <mxCell id="LnXm__7tYP4RGAGag-Qh-54" style="edgeStyle=orthogonalEdgeStyle;shape=link;rounded=0;orthogonalLoop=1;jettySize=auto;html=1;exitX=0.5;exitY=1;exitDx=0;exitDy=0;entryX=1;entryY=0.5;entryDx=0;entryDy=0;strokeColor=default;align=center;verticalAlign=middle;fontFamily=Helvetica;fontSize=11;fontColor=default;labelBackgroundColor=default;endArrow=none;endFill=0;" edge="1" parent="1" source="LnXm__7tYP4RGAGag-Qh-17" target="LnXm__7tYP4RGAGag-Qh-42">
          <mxGeometry relative="1" as="geometry" />
        </mxCell>
        <mxCell id="LnXm__7tYP4RGAGag-Qh-67" value="N" style="edgeLabel;html=1;align=center;verticalAlign=middle;resizable=0;points=[];fontFamily=Helvetica;fontSize=11;fontColor=default;labelBackgroundColor=default;" vertex="1" connectable="0" parent="LnXm__7tYP4RGAGag-Qh-54">
          <mxGeometry x="-0.8553" y="-1" relative="1" as="geometry">
            <mxPoint x="11" y="-2" as="offset" />
          </mxGeometry>
        </mxCell>
        <mxCell id="LnXm__7tYP4RGAGag-Qh-55" style="edgeStyle=orthogonalEdgeStyle;shape=link;rounded=0;orthogonalLoop=1;jettySize=auto;html=1;exitX=0;exitY=0.5;exitDx=0;exitDy=0;entryX=1;entryY=0.5;entryDx=0;entryDy=0;strokeColor=default;align=center;verticalAlign=middle;fontFamily=Helvetica;fontSize=11;fontColor=default;labelBackgroundColor=default;endArrow=none;endFill=0;" edge="1" parent="1" source="LnXm__7tYP4RGAGag-Qh-17" target="LnXm__7tYP4RGAGag-Qh-41">
          <mxGeometry relative="1" as="geometry" />
        </mxCell>
        <mxCell id="LnXm__7tYP4RGAGag-Qh-68" value="N" style="edgeLabel;html=1;align=center;verticalAlign=middle;resizable=0;points=[];fontFamily=Helvetica;fontSize=11;fontColor=default;labelBackgroundColor=default;" vertex="1" connectable="0" parent="LnXm__7tYP4RGAGag-Qh-55">
          <mxGeometry x="-0.8522" y="4" relative="1" as="geometry">
            <mxPoint x="-3" y="-14" as="offset" />
          </mxGeometry>
        </mxCell>
        <mxCell id="LnXm__7tYP4RGAGag-Qh-17" value="NOTA" style="whiteSpace=wrap;html=1;align=center;fontFamily=Helvetica;fontSize=11;labelBackgroundColor=none;fillColor=#dae8fc;strokeColor=#6c8ebf;" vertex="1" parent="1">
          <mxGeometry x="600" y="120" width="100" height="40" as="geometry" />
        </mxCell>
        <mxCell id="LnXm__7tYP4RGAGag-Qh-26" style="edgeStyle=none;shape=connector;rounded=0;orthogonalLoop=1;jettySize=auto;html=1;exitX=0.5;exitY=1;exitDx=0;exitDy=0;entryX=0.5;entryY=0;entryDx=0;entryDy=0;strokeColor=default;align=center;verticalAlign=middle;fontFamily=Helvetica;fontSize=11;fontColor=default;labelBackgroundColor=default;endArrow=none;endFill=0;" edge="1" parent="1" source="LnXm__7tYP4RGAGag-Qh-18" target="LnXm__7tYP4RGAGag-Qh-17">
          <mxGeometry relative="1" as="geometry" />
        </mxCell>
        <mxCell id="LnXm__7tYP4RGAGag-Qh-18" value="Valor" style="ellipse;whiteSpace=wrap;html=1;align=center;fontFamily=Helvetica;fontSize=11;labelBackgroundColor=none;fillColor=#e1d5e7;strokeColor=#9673a6;" vertex="1" parent="1">
          <mxGeometry x="600" y="30" width="100" height="40" as="geometry" />
        </mxCell>
        <mxCell id="LnXm__7tYP4RGAGag-Qh-27" style="edgeStyle=none;shape=connector;rounded=0;orthogonalLoop=1;jettySize=auto;html=1;exitX=0;exitY=0.5;exitDx=0;exitDy=0;entryX=1;entryY=0.5;entryDx=0;entryDy=0;strokeColor=default;align=center;verticalAlign=middle;fontFamily=Helvetica;fontSize=11;fontColor=default;labelBackgroundColor=default;endArrow=none;endFill=0;" edge="1" parent="1" source="LnXm__7tYP4RGAGag-Qh-19" target="LnXm__7tYP4RGAGag-Qh-17">
          <mxGeometry relative="1" as="geometry" />
        </mxCell>
        <mxCell id="LnXm__7tYP4RGAGag-Qh-19" value="DataNota" style="ellipse;whiteSpace=wrap;html=1;align=center;fontFamily=Helvetica;fontSize=11;labelBackgroundColor=none;fillColor=#e1d5e7;strokeColor=#9673a6;" vertex="1" parent="1">
          <mxGeometry x="740" y="100" width="100" height="40" as="geometry" />
        </mxCell>
        <mxCell id="LnXm__7tYP4RGAGag-Qh-20" value="PROFESSOR" style="whiteSpace=wrap;html=1;align=center;fontFamily=Helvetica;fontSize=11;labelBackgroundColor=none;fillColor=#dae8fc;strokeColor=#6c8ebf;" vertex="1" parent="1">
          <mxGeometry x="600" y="490" width="100" height="40" as="geometry" />
        </mxCell>
        <mxCell id="LnXm__7tYP4RGAGag-Qh-24" style="edgeStyle=none;shape=connector;rounded=0;orthogonalLoop=1;jettySize=auto;html=1;exitX=0;exitY=0.5;exitDx=0;exitDy=0;entryX=1;entryY=0.5;entryDx=0;entryDy=0;strokeColor=default;align=center;verticalAlign=middle;fontFamily=Helvetica;fontSize=11;fontColor=default;labelBackgroundColor=default;endArrow=none;endFill=0;" edge="1" parent="1" source="LnXm__7tYP4RGAGag-Qh-21" target="LnXm__7tYP4RGAGag-Qh-20">
          <mxGeometry relative="1" as="geometry" />
        </mxCell>
        <mxCell id="LnXm__7tYP4RGAGag-Qh-21" value="Nome" style="ellipse;whiteSpace=wrap;html=1;align=center;fontFamily=Helvetica;fontSize=11;labelBackgroundColor=none;fillColor=#e1d5e7;strokeColor=#9673a6;" vertex="1" parent="1">
          <mxGeometry x="750" y="490" width="100" height="40" as="geometry" />
        </mxCell>
        <mxCell id="LnXm__7tYP4RGAGag-Qh-25" style="edgeStyle=none;shape=connector;rounded=0;orthogonalLoop=1;jettySize=auto;html=1;exitX=0;exitY=1;exitDx=0;exitDy=0;entryX=0.75;entryY=0;entryDx=0;entryDy=0;strokeColor=default;align=center;verticalAlign=middle;fontFamily=Helvetica;fontSize=11;fontColor=default;labelBackgroundColor=default;endArrow=none;endFill=0;" edge="1" parent="1" source="LnXm__7tYP4RGAGag-Qh-23" target="LnXm__7tYP4RGAGag-Qh-20">
          <mxGeometry relative="1" as="geometry" />
        </mxCell>
        <mxCell id="LnXm__7tYP4RGAGag-Qh-23" value="Email" style="ellipse;whiteSpace=wrap;html=1;align=center;fontStyle=4;fontFamily=Helvetica;fontSize=11;labelBackgroundColor=none;fillColor=#e1d5e7;strokeColor=#9673a6;" vertex="1" parent="1">
          <mxGeometry x="700" y="410" width="100" height="40" as="geometry" />
        </mxCell>
        <mxCell id="LnXm__7tYP4RGAGag-Qh-61" style="edgeStyle=orthogonalEdgeStyle;shape=link;rounded=0;orthogonalLoop=1;jettySize=auto;html=1;exitX=1;exitY=0.5;exitDx=0;exitDy=0;entryX=0;entryY=0.5;entryDx=0;entryDy=0;strokeColor=default;align=center;verticalAlign=middle;fontFamily=Helvetica;fontSize=11;fontColor=default;labelBackgroundColor=default;endArrow=none;endFill=0;" edge="1" parent="1" source="LnXm__7tYP4RGAGag-Qh-28" target="LnXm__7tYP4RGAGag-Qh-45">
          <mxGeometry relative="1" as="geometry" />
        </mxCell>
        <mxCell id="LnXm__7tYP4RGAGag-Qh-75" value="1" style="edgeLabel;html=1;align=center;verticalAlign=middle;resizable=0;points=[];fontFamily=Helvetica;fontSize=11;fontColor=default;labelBackgroundColor=default;" vertex="1" connectable="0" parent="LnXm__7tYP4RGAGag-Qh-61">
          <mxGeometry x="-0.625" y="1" relative="1" as="geometry">
            <mxPoint y="11" as="offset" />
          </mxGeometry>
        </mxCell>
        <mxCell id="LnXm__7tYP4RGAGag-Qh-28" value="DISCIPLINA" style="whiteSpace=wrap;html=1;align=center;fontFamily=Helvetica;fontSize=11;labelBackgroundColor=none;fillColor=#dae8fc;strokeColor=#6c8ebf;" vertex="1" parent="1">
          <mxGeometry x="-150" y="490" width="100" height="40" as="geometry" />
        </mxCell>
        <mxCell id="LnXm__7tYP4RGAGag-Qh-31" style="edgeStyle=none;shape=connector;rounded=0;orthogonalLoop=1;jettySize=auto;html=1;exitX=0.5;exitY=0;exitDx=0;exitDy=0;entryX=0;entryY=1;entryDx=0;entryDy=0;strokeColor=default;align=center;verticalAlign=middle;fontFamily=Helvetica;fontSize=11;fontColor=default;labelBackgroundColor=default;endArrow=none;endFill=0;" edge="1" parent="1" source="LnXm__7tYP4RGAGag-Qh-30" target="LnXm__7tYP4RGAGag-Qh-28">
          <mxGeometry relative="1" as="geometry" />
        </mxCell>
        <mxCell id="LnXm__7tYP4RGAGag-Qh-30" value="Disciplina" style="ellipse;whiteSpace=wrap;html=1;align=center;fontFamily=Helvetica;fontSize=11;labelBackgroundColor=none;fillColor=#e1d5e7;strokeColor=#9673a6;" vertex="1" parent="1">
          <mxGeometry x="-210" y="585" width="100" height="40" as="geometry" />
        </mxCell>
        <mxCell id="LnXm__7tYP4RGAGag-Qh-63" style="edgeStyle=orthogonalEdgeStyle;shape=link;rounded=0;orthogonalLoop=1;jettySize=auto;html=1;exitX=1;exitY=0.5;exitDx=0;exitDy=0;entryX=0;entryY=0.5;entryDx=0;entryDy=0;strokeColor=default;align=center;verticalAlign=middle;fontFamily=Helvetica;fontSize=11;fontColor=default;labelBackgroundColor=default;endArrow=none;endFill=0;" edge="1" parent="1" source="LnXm__7tYP4RGAGag-Qh-33" target="LnXm__7tYP4RGAGag-Qh-44">
          <mxGeometry relative="1" as="geometry" />
        </mxCell>
        <mxCell id="LnXm__7tYP4RGAGag-Qh-78" value="N" style="edgeLabel;html=1;align=center;verticalAlign=middle;resizable=0;points=[];fontFamily=Helvetica;fontSize=11;fontColor=default;labelBackgroundColor=default;" vertex="1" connectable="0" parent="LnXm__7tYP4RGAGag-Qh-63">
          <mxGeometry x="-0.6216" y="-3" relative="1" as="geometry">
            <mxPoint x="-4" y="-13" as="offset" />
          </mxGeometry>
        </mxCell>
        <mxCell id="LnXm__7tYP4RGAGag-Qh-65" style="edgeStyle=orthogonalEdgeStyle;shape=connector;rounded=0;orthogonalLoop=1;jettySize=auto;html=1;exitX=0.5;exitY=0;exitDx=0;exitDy=0;entryX=0;entryY=0.5;entryDx=0;entryDy=0;strokeColor=default;align=center;verticalAlign=middle;fontFamily=Helvetica;fontSize=11;fontColor=default;labelBackgroundColor=default;endArrow=none;endFill=0;" edge="1" parent="1" source="LnXm__7tYP4RGAGag-Qh-33" target="LnXm__7tYP4RGAGag-Qh-42">
          <mxGeometry relative="1" as="geometry" />
        </mxCell>
        <mxCell id="LnXm__7tYP4RGAGag-Qh-77" value="1" style="edgeLabel;html=1;align=center;verticalAlign=middle;resizable=0;points=[];fontFamily=Helvetica;fontSize=11;fontColor=default;labelBackgroundColor=default;" vertex="1" connectable="0" parent="LnXm__7tYP4RGAGag-Qh-65">
          <mxGeometry x="-0.9077" y="1" relative="1" as="geometry">
            <mxPoint x="11" as="offset" />
          </mxGeometry>
        </mxCell>
        <mxCell id="LnXm__7tYP4RGAGag-Qh-33" value="MÃDULO" style="whiteSpace=wrap;html=1;align=center;fontFamily=Helvetica;fontSize=11;labelBackgroundColor=none;fillColor=#dae8fc;strokeColor=#6c8ebf;" vertex="1" parent="1">
          <mxGeometry x="240" y="490" width="100" height="40" as="geometry" />
        </mxCell>
        <mxCell id="LnXm__7tYP4RGAGag-Qh-39" style="edgeStyle=none;shape=connector;rounded=0;orthogonalLoop=1;jettySize=auto;html=1;exitX=0.5;exitY=0;exitDx=0;exitDy=0;entryX=0.25;entryY=1;entryDx=0;entryDy=0;strokeColor=default;align=center;verticalAlign=middle;fontFamily=Helvetica;fontSize=11;fontColor=default;labelBackgroundColor=default;endArrow=none;endFill=0;" edge="1" parent="1" source="LnXm__7tYP4RGAGag-Qh-35" target="LnXm__7tYP4RGAGag-Qh-33">
          <mxGeometry relative="1" as="geometry" />
        </mxCell>
        <mxCell id="LnXm__7tYP4RGAGag-Qh-35" value="CodModulo" style="ellipse;whiteSpace=wrap;html=1;align=center;fontStyle=4;fontFamily=Helvetica;fontSize=11;labelBackgroundColor=none;fillColor=#e1d5e7;strokeColor=#9673a6;" vertex="1" parent="1">
          <mxGeometry x="190" y="580" width="100" height="40" as="geometry" />
        </mxCell>
        <mxCell id="LnXm__7tYP4RGAGag-Qh-37" style="edgeStyle=none;shape=connector;rounded=0;orthogonalLoop=1;jettySize=auto;html=1;exitX=1;exitY=0.5;exitDx=0;exitDy=0;entryX=0;entryY=0.5;entryDx=0;entryDy=0;strokeColor=default;align=center;verticalAlign=middle;fontFamily=Helvetica;fontSize=11;fontColor=default;labelBackgroundColor=default;endArrow=none;endFill=0;" edge="1" parent="1" source="LnXm__7tYP4RGAGag-Qh-36" target="LnXm__7tYP4RGAGag-Qh-28">
          <mxGeometry relative="1" as="geometry" />
        </mxCell>
        <mxCell id="LnXm__7tYP4RGAGag-Qh-36" value="CodModulo" style="ellipse;whiteSpace=wrap;html=1;align=center;fontStyle=4;fontFamily=Helvetica;fontSize=11;labelBackgroundColor=none;fillColor=#e1d5e7;strokeColor=#9673a6;" vertex="1" parent="1">
          <mxGeometry x="-300" y="490" width="100" height="40" as="geometry" />
        </mxCell>
        <mxCell id="LnXm__7tYP4RGAGag-Qh-40" style="edgeStyle=none;shape=connector;rounded=0;orthogonalLoop=1;jettySize=auto;html=1;exitX=0.5;exitY=0;exitDx=0;exitDy=0;entryX=0.75;entryY=1;entryDx=0;entryDy=0;strokeColor=default;align=center;verticalAlign=middle;fontFamily=Helvetica;fontSize=11;fontColor=default;labelBackgroundColor=default;endArrow=none;endFill=0;" edge="1" parent="1" source="LnXm__7tYP4RGAGag-Qh-38" target="LnXm__7tYP4RGAGag-Qh-33">
          <mxGeometry relative="1" as="geometry" />
        </mxCell>
        <mxCell id="LnXm__7tYP4RGAGag-Qh-38" value="DescriÃ§Ã£o" style="ellipse;whiteSpace=wrap;html=1;align=center;fontFamily=Helvetica;fontSize=11;labelBackgroundColor=none;fillColor=#e1d5e7;strokeColor=#9673a6;" vertex="1" parent="1">
          <mxGeometry x="310" y="580" width="100" height="40" as="geometry" />
        </mxCell>
        <mxCell id="LnXm__7tYP4RGAGag-Qh-56" style="edgeStyle=orthogonalEdgeStyle;shape=connector;rounded=0;orthogonalLoop=1;jettySize=auto;html=1;exitX=0;exitY=0.5;exitDx=0;exitDy=0;entryX=1;entryY=0.5;entryDx=0;entryDy=0;strokeColor=default;align=center;verticalAlign=middle;fontFamily=Helvetica;fontSize=11;fontColor=default;labelBackgroundColor=default;endArrow=none;endFill=0;" edge="1" parent="1" source="LnXm__7tYP4RGAGag-Qh-41" target="LnXm__7tYP4RGAGag-Qh-1">
          <mxGeometry relative="1" as="geometry" />
        </mxCell>
        <mxCell id="LnXm__7tYP4RGAGag-Qh-69" value="1" style="edgeLabel;html=1;align=center;verticalAlign=middle;resizable=0;points=[];fontFamily=Helvetica;fontSize=11;fontColor=default;labelBackgroundColor=default;" vertex="1" connectable="0" parent="LnXm__7tYP4RGAGag-Qh-56">
          <mxGeometry x="0.8476" relative="1" as="geometry">
            <mxPoint x="4" y="-10" as="offset" />
          </mxGeometry>
        </mxCell>
        <mxCell id="LnXm__7tYP4RGAGag-Qh-41" value="ALUNO_TEM_NOTA" style="shape=rhombus;perimeter=rhombusPerimeter;whiteSpace=wrap;html=1;align=center;fontFamily=Helvetica;fontSize=11;labelBackgroundColor=none;fillColor=#f8cecc;strokeColor=#b85450;" vertex="1" parent="1">
          <mxGeometry x="240" y="105" width="130" height="70" as="geometry" />
        </mxCell>
        <mxCell id="LnXm__7tYP4RGAGag-Qh-42" value="NOTA_DE_MODULO" style="shape=rhombus;perimeter=rhombusPerimeter;whiteSpace=wrap;html=1;align=center;fontFamily=Helvetica;fontSize=11;labelBackgroundColor=none;fillColor=#f8cecc;strokeColor=#b85450;" vertex="1" parent="1">
          <mxGeometry x="440" y="280" width="130" height="70" as="geometry" />
        </mxCell>
        <mxCell id="LnXm__7tYP4RGAGag-Qh-64" style="edgeStyle=orthogonalEdgeStyle;shape=connector;rounded=0;orthogonalLoop=1;jettySize=auto;html=1;exitX=1;exitY=0.5;exitDx=0;exitDy=0;entryX=0;entryY=0.5;entryDx=0;entryDy=0;strokeColor=default;align=center;verticalAlign=middle;fontFamily=Helvetica;fontSize=11;fontColor=default;labelBackgroundColor=default;endArrow=none;endFill=0;" edge="1" parent="1" source="LnXm__7tYP4RGAGag-Qh-44" target="LnXm__7tYP4RGAGag-Qh-20">
          <mxGeometry relative="1" as="geometry" />
        </mxCell>
        <mxCell id="LnXm__7tYP4RGAGag-Qh-66" value="1" style="edgeLabel;html=1;align=center;verticalAlign=middle;resizable=0;points=[];fontFamily=Helvetica;fontSize=11;fontColor=default;labelBackgroundColor=default;" vertex="1" connectable="0" parent="LnXm__7tYP4RGAGag-Qh-64">
          <mxGeometry x="0.4848" y="-3" relative="1" as="geometry">
            <mxPoint y="-13" as="offset" />
          </mxGeometry>
        </mxCell>
        <mxCell id="LnXm__7tYP4RGAGag-Qh-44" value="R2" style="shape=rhombus;perimeter=rhombusPerimeter;whiteSpace=wrap;html=1;align=center;fontFamily=Helvetica;fontSize=11;labelBackgroundColor=none;fillColor=#f8cecc;strokeColor=#b85450;" vertex="1" parent="1">
          <mxGeometry x="414" y="480" width="120" height="60" as="geometry" />
        </mxCell>
        <mxCell id="LnXm__7tYP4RGAGag-Qh-62" style="edgeStyle=orthogonalEdgeStyle;shape=link;rounded=0;orthogonalLoop=1;jettySize=auto;html=1;exitX=1;exitY=0.5;exitDx=0;exitDy=0;entryX=0;entryY=0.5;entryDx=0;entryDy=0;strokeColor=default;align=center;verticalAlign=middle;fontFamily=Helvetica;fontSize=11;fontColor=default;labelBackgroundColor=default;endArrow=none;endFill=0;" edge="1" parent="1" source="LnXm__7tYP4RGAGag-Qh-45" target="LnXm__7tYP4RGAGag-Qh-33">
          <mxGeometry relative="1" as="geometry" />
        </mxCell>
        <mxCell id="LnXm__7tYP4RGAGag-Qh-76" value="N" style="edgeLabel;html=1;align=center;verticalAlign=middle;resizable=0;points=[];fontFamily=Helvetica;fontSize=11;fontColor=default;labelBackgroundColor=default;" vertex="1" connectable="0" parent="LnXm__7tYP4RGAGag-Qh-62">
          <mxGeometry x="0.6889" y="-2" relative="1" as="geometry">
            <mxPoint x="-6" y="-12" as="offset" />
          </mxGeometry>
        </mxCell>
        <mxCell id="LnXm__7tYP4RGAGag-Qh-45" value="R1" style="shape=rhombus;perimeter=rhombusPerimeter;whiteSpace=wrap;html=1;align=center;fontFamily=Helvetica;fontSize=11;labelBackgroundColor=none;fillColor=#f8cecc;strokeColor=#b85450;" vertex="1" parent="1">
          <mxGeometry x="30" y="480" width="120" height="60" as="geometry" />
        </mxCell>
        <mxCell id="LnXm__7tYP4RGAGag-Qh-59" style="edgeStyle=orthogonalEdgeStyle;shape=link;rounded=0;orthogonalLoop=1;jettySize=auto;html=1;exitX=0.5;exitY=0;exitDx=0;exitDy=0;entryX=0.75;entryY=1;entryDx=0;entryDy=0;strokeColor=default;align=center;verticalAlign=middle;fontFamily=Helvetica;fontSize=11;fontColor=default;labelBackgroundColor=default;endArrow=none;endFill=0;" edge="1" parent="1" source="LnXm__7tYP4RGAGag-Qh-48" target="LnXm__7tYP4RGAGag-Qh-10">
          <mxGeometry relative="1" as="geometry" />
        </mxCell>
        <mxCell id="LnXm__7tYP4RGAGag-Qh-72" value="N" style="edgeLabel;html=1;align=center;verticalAlign=middle;resizable=0;points=[];fontFamily=Helvetica;fontSize=11;fontColor=default;labelBackgroundColor=default;" vertex="1" connectable="0" parent="LnXm__7tYP4RGAGag-Qh-59">
          <mxGeometry x="0.8261" y="-1" relative="1" as="geometry">
            <mxPoint x="4" as="offset" />
          </mxGeometry>
        </mxCell>
        <mxCell id="LnXm__7tYP4RGAGag-Qh-60" style="edgeStyle=orthogonalEdgeStyle;shape=link;rounded=0;orthogonalLoop=1;jettySize=auto;html=1;exitX=0.5;exitY=1;exitDx=0;exitDy=0;entryX=0.75;entryY=0;entryDx=0;entryDy=0;strokeColor=default;align=center;verticalAlign=middle;fontFamily=Helvetica;fontSize=11;fontColor=default;labelBackgroundColor=default;endArrow=none;endFill=0;" edge="1" parent="1" source="LnXm__7tYP4RGAGag-Qh-48" target="LnXm__7tYP4RGAGag-Qh-28">
          <mxGeometry relative="1" as="geometry" />
        </mxCell>
        <mxCell id="LnXm__7tYP4RGAGag-Qh-113" value="M" style="edgeLabel;html=1;align=center;verticalAlign=middle;resizable=0;points=[];fontFamily=Helvetica;fontSize=11;fontColor=default;labelBackgroundColor=default;" vertex="1" connectable="0" parent="LnXm__7tYP4RGAGag-Qh-60">
          <mxGeometry x="-0.648" y="2" relative="1" as="geometry">
            <mxPoint x="8" y="-9" as="offset" />
          </mxGeometry>
        </mxCell>
        <mxCell id="LnXm__7tYP4RGAGag-Qh-48" value="R3" style="shape=rhombus;perimeter=rhombusPerimeter;whiteSpace=wrap;html=1;align=center;fontFamily=Helvetica;fontSize=11;labelBackgroundColor=none;fillColor=#f8cecc;strokeColor=#b85450;" vertex="1" parent="1">
          <mxGeometry x="-70" y="390" width="120" height="60" as="geometry" />
        </mxCell>
        <mxCell id="LnXm__7tYP4RGAGag-Qh-57" style="edgeStyle=orthogonalEdgeStyle;shape=link;rounded=0;orthogonalLoop=1;jettySize=auto;html=1;exitX=0.5;exitY=0;exitDx=0;exitDy=0;entryX=0.75;entryY=1;entryDx=0;entryDy=0;strokeColor=default;align=center;verticalAlign=middle;fontFamily=Helvetica;fontSize=11;fontColor=default;labelBackgroundColor=default;endArrow=none;endFill=0;" edge="1" parent="1" source="LnXm__7tYP4RGAGag-Qh-49" target="LnXm__7tYP4RGAGag-Qh-1">
          <mxGeometry relative="1" as="geometry" />
        </mxCell>
        <mxCell id="LnXm__7tYP4RGAGag-Qh-70" value="N" style="edgeLabel;html=1;align=center;verticalAlign=middle;resizable=0;points=[];fontFamily=Helvetica;fontSize=11;fontColor=default;labelBackgroundColor=default;" vertex="1" connectable="0" parent="LnXm__7tYP4RGAGag-Qh-57">
          <mxGeometry x="0.7905" y="3" relative="1" as="geometry">
            <mxPoint x="-12" y="4" as="offset" />
          </mxGeometry>
        </mxCell>
        <mxCell id="LnXm__7tYP4RGAGag-Qh-58" style="edgeStyle=orthogonalEdgeStyle;shape=link;rounded=0;orthogonalLoop=1;jettySize=auto;html=1;exitX=0.5;exitY=1;exitDx=0;exitDy=0;entryX=1;entryY=0.5;entryDx=0;entryDy=0;strokeColor=default;align=center;verticalAlign=middle;fontFamily=Helvetica;fontSize=11;fontColor=default;labelBackgroundColor=default;endArrow=none;endFill=0;" edge="1" parent="1" source="LnXm__7tYP4RGAGag-Qh-49" target="LnXm__7tYP4RGAGag-Qh-10">
          <mxGeometry relative="1" as="geometry" />
        </mxCell>
        <mxCell id="LnXm__7tYP4RGAGag-Qh-71" value="1" style="edgeLabel;html=1;align=center;verticalAlign=middle;resizable=0;points=[];fontFamily=Helvetica;fontSize=11;fontColor=default;labelBackgroundColor=default;" vertex="1" connectable="0" parent="LnXm__7tYP4RGAGag-Qh-58">
          <mxGeometry x="0.7333" y="-1" relative="1" as="geometry">
            <mxPoint x="-6" y="-9" as="offset" />
          </mxGeometry>
        </mxCell>
        <mxCell id="LnXm__7tYP4RGAGag-Qh-49" value="R4" style="shape=rhombus;perimeter=rhombusPerimeter;whiteSpace=wrap;html=1;align=center;fontFamily=Helvetica;fontSize=11;labelBackgroundColor=none;fillColor=#f8cecc;strokeColor=#b85450;" vertex="1" parent="1">
          <mxGeometry y="210" width="120" height="60" as="geometry" />
        </mxCell>
        <mxCell id="LnXm__7tYP4RGAGag-Qh-53" style="edgeStyle=none;shape=connector;rounded=0;orthogonalLoop=1;jettySize=auto;html=1;exitX=0;exitY=0.5;exitDx=0;exitDy=0;entryX=1;entryY=1;entryDx=0;entryDy=0;strokeColor=default;align=center;verticalAlign=middle;fontFamily=Helvetica;fontSize=11;fontColor=default;labelBackgroundColor=default;endArrow=none;endFill=0;" edge="1" parent="1" source="LnXm__7tYP4RGAGag-Qh-50" target="LnXm__7tYP4RGAGag-Qh-49">
          <mxGeometry relative="1" as="geometry" />
        </mxCell>
        <mxCell id="LnXm__7tYP4RGAGag-Qh-50" value="Fim ?" style="ellipse;whiteSpace=wrap;html=1;align=center;fontFamily=Helvetica;fontSize=11;labelBackgroundColor=none;fillColor=#e1d5e7;strokeColor=#9673a6;" vertex="1" parent="1">
          <mxGeometry x="110" y="310" width="100" height="40" as="geometry" />
        </mxCell>
        <mxCell id="LnXm__7tYP4RGAGag-Qh-52" style="edgeStyle=none;shape=connector;rounded=0;orthogonalLoop=1;jettySize=auto;html=1;exitX=0;exitY=0.5;exitDx=0;exitDy=0;entryX=1;entryY=0.5;entryDx=0;entryDy=0;strokeColor=default;align=center;verticalAlign=middle;fontFamily=Helvetica;fontSize=11;fontColor=default;labelBackgroundColor=default;endArrow=none;endFill=0;" edge="1" parent="1" source="LnXm__7tYP4RGAGag-Qh-51" target="LnXm__7tYP4RGAGag-Qh-49">
          <mxGeometry relative="1" as="geometry" />
        </mxCell>
        <mxCell id="LnXm__7tYP4RGAGag-Qh-51" value="Inicio" style="ellipse;whiteSpace=wrap;html=1;align=center;fontFamily=Helvetica;fontSize=11;labelBackgroundColor=none;fillColor=#e1d5e7;strokeColor=#9673a6;" vertex="1" parent="1">
          <mxGeometry x="160" y="230" width="100" height="40" as="geometry" />
        </mxCell>
        <mxCell id="LnXm__7tYP4RGAGag-Qh-79" value="DISCIPLINA" style="swimlane;childLayout=stackLayout;horizontal=1;startSize=50;horizontalStack=0;rounded=1;fontSize=14;fontStyle=0;strokeWidth=2;resizeParent=0;resizeLast=1;shadow=0;dashed=0;align=center;arcSize=4;whiteSpace=wrap;html=1;fontFamily=Helvetica;labelBackgroundColor=none;fillColor=#dae8fc;strokeColor=#6c8ebf;" vertex="1" parent="1">
          <mxGeometry x="-120" y="1190" width="160" height="120" as="geometry" />
        </mxCell>
        <mxCell id="LnXm__7tYP4RGAGag-Qh-80" value="&lt;u&gt;CodModulo&lt;/u&gt;&lt;div&gt;Disciplina&lt;/div&gt;" style="align=left;strokeColor=#6c8ebf;fillColor=#dae8fc;spacingLeft=4;spacingRight=4;fontSize=12;verticalAlign=top;resizable=0;rotatable=0;part=1;html=1;whiteSpace=wrap;fontFamily=Helvetica;labelBackgroundColor=none;" vertex="1" parent="LnXm__7tYP4RGAGag-Qh-79">
          <mxGeometry y="50" width="160" height="70" as="geometry" />
        </mxCell>
        <mxCell id="LnXm__7tYP4RGAGag-Qh-81" value="ALUNO" style="swimlane;childLayout=stackLayout;horizontal=1;startSize=50;horizontalStack=0;rounded=1;fontSize=14;fontStyle=0;strokeWidth=2;resizeParent=0;resizeLast=1;shadow=0;dashed=0;align=center;arcSize=4;whiteSpace=wrap;html=1;fontFamily=Helvetica;labelBackgroundColor=none;fillColor=#dae8fc;strokeColor=#6c8ebf;" vertex="1" parent="1">
          <mxGeometry x="-120" y="680" width="160" height="150" as="geometry" />
        </mxCell>
        <mxCell id="LnXm__7tYP4RGAGag-Qh-82" value="&lt;u&gt;NumAluno&lt;/u&gt;&lt;br&gt;&lt;div&gt;DataNasci&lt;/div&gt;&lt;div&gt;NomeAluno&lt;/div&gt;&lt;div&gt;CodCurso&lt;/div&gt;&lt;div&gt;Inicio&amp;nbsp;&lt;/div&gt;&lt;div&gt;Fim ?&lt;/div&gt;" style="align=left;strokeColor=#6c8ebf;fillColor=#dae8fc;spacingLeft=4;spacingRight=4;fontSize=12;verticalAlign=top;resizable=0;rotatable=0;part=1;html=1;whiteSpace=wrap;fontFamily=Helvetica;labelBackgroundColor=none;" vertex="1" parent="LnXm__7tYP4RGAGag-Qh-81">
          <mxGeometry y="50" width="160" height="100" as="geometry" />
        </mxCell>
        <mxCell id="LnXm__7tYP4RGAGag-Qh-83" value="PROFESSOR" style="swimlane;childLayout=stackLayout;horizontal=1;startSize=50;horizontalStack=0;rounded=1;fontSize=14;fontStyle=0;strokeWidth=2;resizeParent=0;resizeLast=1;shadow=0;dashed=0;align=center;arcSize=4;whiteSpace=wrap;html=1;fontFamily=Helvetica;labelBackgroundColor=none;fillColor=#dae8fc;strokeColor=#6c8ebf;" vertex="1" parent="1">
          <mxGeometry x="520" y="1160" width="160" height="120" as="geometry" />
        </mxCell>
        <mxCell id="LnXm__7tYP4RGAGag-Qh-84" value="&lt;u&gt;Email&lt;/u&gt;&lt;br&gt;&lt;div&gt;Nome&lt;/div&gt;" style="align=left;strokeColor=#6c8ebf;fillColor=#dae8fc;spacingLeft=4;spacingRight=4;fontSize=12;verticalAlign=top;resizable=0;rotatable=0;part=1;html=1;whiteSpace=wrap;fontFamily=Helvetica;labelBackgroundColor=none;" vertex="1" parent="LnXm__7tYP4RGAGag-Qh-83">
          <mxGeometry y="50" width="160" height="70" as="geometry" />
        </mxCell>
        <mxCell id="LnXm__7tYP4RGAGag-Qh-85" value="NOTA" style="swimlane;childLayout=stackLayout;horizontal=1;startSize=50;horizontalStack=0;rounded=1;fontSize=14;fontStyle=0;strokeWidth=2;resizeParent=0;resizeLast=1;shadow=0;dashed=0;align=center;arcSize=4;whiteSpace=wrap;html=1;fontFamily=Helvetica;labelBackgroundColor=none;fillColor=#dae8fc;strokeColor=#6c8ebf;" vertex="1" parent="1">
          <mxGeometry x="480" y="650" width="160" height="120" as="geometry" />
        </mxCell>
        <mxCell id="LnXm__7tYP4RGAGag-Qh-86" value="&lt;div&gt;&lt;span style=&quot;color: light-dark(rgb(0, 0, 0), rgb(255, 255, 255));&quot;&gt;Valor&lt;/span&gt;&lt;/div&gt;&lt;div&gt;DataNota&lt;/div&gt;&lt;div&gt;NumAluno&lt;/div&gt;&lt;div&gt;CodModulo&lt;/div&gt;" style="align=left;strokeColor=#6c8ebf;fillColor=#dae8fc;spacingLeft=4;spacingRight=4;fontSize=12;verticalAlign=top;resizable=0;rotatable=0;part=1;html=1;whiteSpace=wrap;fontFamily=Helvetica;labelBackgroundColor=none;" vertex="1" parent="LnXm__7tYP4RGAGag-Qh-85">
          <mxGeometry y="50" width="160" height="70" as="geometry" />
        </mxCell>
        <mxCell id="LnXm__7tYP4RGAGag-Qh-87" value="CURSO" style="swimlane;childLayout=stackLayout;horizontal=1;startSize=50;horizontalStack=0;rounded=1;fontSize=14;fontStyle=0;strokeWidth=2;resizeParent=0;resizeLast=1;shadow=0;dashed=0;align=center;arcSize=4;whiteSpace=wrap;html=1;fontFamily=Helvetica;labelBackgroundColor=none;fillColor=#dae8fc;strokeColor=#6c8ebf;" vertex="1" parent="1">
          <mxGeometry x="-120" y="920" width="160" height="120" as="geometry" />
        </mxCell>
        <mxCell id="LnXm__7tYP4RGAGag-Qh-88" value="&lt;div&gt;&lt;u&gt;CodCurso&lt;/u&gt;&lt;/div&gt;NomCurso" style="align=left;strokeColor=#6c8ebf;fillColor=#dae8fc;spacingLeft=4;spacingRight=4;fontSize=12;verticalAlign=top;resizable=0;rotatable=0;part=1;html=1;whiteSpace=wrap;fontFamily=Helvetica;labelBackgroundColor=none;" vertex="1" parent="LnXm__7tYP4RGAGag-Qh-87">
          <mxGeometry y="50" width="160" height="70" as="geometry" />
        </mxCell>
        <mxCell id="LnXm__7tYP4RGAGag-Qh-89" value="MÃDULO" style="swimlane;childLayout=stackLayout;horizontal=1;startSize=50;horizontalStack=0;rounded=1;fontSize=14;fontStyle=0;strokeWidth=2;resizeParent=0;resizeLast=1;shadow=0;dashed=0;align=center;arcSize=4;whiteSpace=wrap;html=1;fontFamily=Helvetica;labelBackgroundColor=none;fillColor=#dae8fc;strokeColor=#6c8ebf;" vertex="1" parent="1">
          <mxGeometry x="260" y="1150" width="160" height="120" as="geometry" />
        </mxCell>
        <mxCell id="LnXm__7tYP4RGAGag-Qh-90" value="&lt;div&gt;&lt;u&gt;CodMÃ³dulo&lt;/u&gt;&lt;/div&gt;DescriÃ§Ã£o&lt;div&gt;EmailProf&lt;/div&gt;&lt;div&gt;CodModulo&lt;/div&gt;" style="align=left;strokeColor=#6c8ebf;fillColor=#dae8fc;spacingLeft=4;spacingRight=4;fontSize=12;verticalAlign=top;resizable=0;rotatable=0;part=1;html=1;whiteSpace=wrap;fontFamily=Helvetica;labelBackgroundColor=none;" vertex="1" parent="LnXm__7tYP4RGAGag-Qh-89">
          <mxGeometry y="50" width="160" height="70" as="geometry" />
        </mxCell>
        <mxCell id="LnXm__7tYP4RGAGag-Qh-97" style="edgeStyle=orthogonalEdgeStyle;shape=connector;rounded=0;orthogonalLoop=1;jettySize=auto;html=1;exitX=-0.02;exitY=0.625;exitDx=0;exitDy=0;entryX=0.995;entryY=0.138;entryDx=0;entryDy=0;entryPerimeter=0;strokeColor=default;align=center;verticalAlign=middle;fontFamily=Helvetica;fontSize=11;fontColor=default;labelBackgroundColor=default;endArrow=classic;endFill=1;exitPerimeter=0;" edge="1" parent="1" source="LnXm__7tYP4RGAGag-Qh-86" target="LnXm__7tYP4RGAGag-Qh-82">
          <mxGeometry relative="1" as="geometry" />
        </mxCell>
        <mxCell id="LnXm__7tYP4RGAGag-Qh-98" style="edgeStyle=orthogonalEdgeStyle;shape=connector;rounded=0;orthogonalLoop=1;jettySize=auto;html=1;exitX=0;exitY=0.75;exitDx=0;exitDy=0;entryX=0;entryY=0.143;entryDx=0;entryDy=0;strokeColor=default;align=center;verticalAlign=middle;fontFamily=Helvetica;fontSize=11;fontColor=default;labelBackgroundColor=default;endArrow=classic;endFill=1;entryPerimeter=0;" edge="1" parent="1" source="LnXm__7tYP4RGAGag-Qh-86" target="LnXm__7tYP4RGAGag-Qh-90">
          <mxGeometry relative="1" as="geometry" />
        </mxCell>
        <mxCell id="LnXm__7tYP4RGAGag-Qh-99" style="edgeStyle=orthogonalEdgeStyle;shape=connector;rounded=0;orthogonalLoop=1;jettySize=auto;html=1;exitX=1.015;exitY=0.634;exitDx=0;exitDy=0;entryX=0;entryY=0.25;entryDx=0;entryDy=0;strokeColor=default;align=center;verticalAlign=middle;fontFamily=Helvetica;fontSize=11;fontColor=default;labelBackgroundColor=default;endArrow=classic;endFill=1;exitPerimeter=0;" edge="1" parent="1" source="LnXm__7tYP4RGAGag-Qh-90" target="LnXm__7tYP4RGAGag-Qh-84">
          <mxGeometry relative="1" as="geometry" />
        </mxCell>
        <mxCell id="LnXm__7tYP4RGAGag-Qh-101" style="edgeStyle=orthogonalEdgeStyle;shape=connector;rounded=0;orthogonalLoop=1;jettySize=auto;html=1;exitX=0.006;exitY=0.869;exitDx=0;exitDy=0;entryX=1.002;entryY=0.155;entryDx=0;entryDy=0;entryPerimeter=0;strokeColor=default;align=center;verticalAlign=middle;fontFamily=Helvetica;fontSize=11;fontColor=default;labelBackgroundColor=default;endArrow=classic;endFill=1;exitPerimeter=0;" edge="1" parent="1" source="LnXm__7tYP4RGAGag-Qh-90" target="LnXm__7tYP4RGAGag-Qh-80">
          <mxGeometry relative="1" as="geometry" />
        </mxCell>
        <mxCell id="LnXm__7tYP4RGAGag-Qh-102" value="R3" style="swimlane;childLayout=stackLayout;horizontal=1;startSize=50;horizontalStack=0;rounded=1;fontSize=14;fontStyle=0;strokeWidth=2;resizeParent=0;resizeLast=1;shadow=0;dashed=0;align=center;arcSize=4;whiteSpace=wrap;html=1;fontFamily=Helvetica;labelBackgroundColor=none;fillColor=#f8cecc;strokeColor=#b85450;" vertex="1" parent="1">
          <mxGeometry x="50" y="1060" width="160" height="120" as="geometry" />
        </mxCell>
        <mxCell id="LnXm__7tYP4RGAGag-Qh-103" value="&lt;u&gt;CodCurso&lt;/u&gt;&lt;div&gt;&lt;u&gt;CodModulo&lt;/u&gt;&lt;/div&gt;" style="align=left;strokeColor=#b85450;fillColor=#f8cecc;spacingLeft=4;spacingRight=4;fontSize=12;verticalAlign=top;resizable=0;rotatable=0;part=1;html=1;whiteSpace=wrap;fontFamily=Helvetica;labelBackgroundColor=none;" vertex="1" parent="LnXm__7tYP4RGAGag-Qh-102">
          <mxGeometry y="50" width="160" height="70" as="geometry" />
        </mxCell>
        <mxCell id="LnXm__7tYP4RGAGag-Qh-104" style="edgeStyle=orthogonalEdgeStyle;shape=connector;rounded=0;orthogonalLoop=1;jettySize=auto;html=1;exitX=0;exitY=0.5;exitDx=0;exitDy=0;entryX=0;entryY=0.25;entryDx=0;entryDy=0;strokeColor=default;align=center;verticalAlign=middle;fontFamily=Helvetica;fontSize=11;fontColor=default;labelBackgroundColor=default;endArrow=classic;endFill=1;" edge="1" parent="1" source="LnXm__7tYP4RGAGag-Qh-103" target="LnXm__7tYP4RGAGag-Qh-80">
          <mxGeometry relative="1" as="geometry" />
        </mxCell>
        <mxCell id="LnXm__7tYP4RGAGag-Qh-105" style="edgeStyle=orthogonalEdgeStyle;shape=connector;rounded=0;orthogonalLoop=1;jettySize=auto;html=1;exitX=0;exitY=0.25;exitDx=0;exitDy=0;entryX=0;entryY=0.25;entryDx=0;entryDy=0;strokeColor=default;align=center;verticalAlign=middle;fontFamily=Helvetica;fontSize=11;fontColor=default;labelBackgroundColor=default;endArrow=classic;endFill=1;" edge="1" parent="1" source="LnXm__7tYP4RGAGag-Qh-103" target="LnXm__7tYP4RGAGag-Qh-88">
          <mxGeometry relative="1" as="geometry" />
        </mxCell>
        <mxCell id="LnXm__7tYP4RGAGag-Qh-106" style="edgeStyle=orthogonalEdgeStyle;shape=connector;rounded=0;orthogonalLoop=1;jettySize=auto;html=1;entryX=0.995;entryY=0.155;entryDx=0;entryDy=0;strokeColor=default;align=center;verticalAlign=middle;fontFamily=Helvetica;fontSize=11;fontColor=default;labelBackgroundColor=default;endArrow=classic;endFill=1;entryPerimeter=0;" edge="1" parent="1" target="LnXm__7tYP4RGAGag-Qh-88">
          <mxGeometry relative="1" as="geometry">
            <mxPoint x="-120" y="790" as="sourcePoint" />
            <Array as="points">
              <mxPoint x="-120" y="790" />
              <mxPoint x="-140" y="790" />
              <mxPoint x="-140" y="905" />
              <mxPoint x="60" y="905" />
              <mxPoint x="60" y="991" />
            </Array>
          </mxGeometry>
        </mxCell>
      </root>
    </mxGraphModel>
  </diagram>
</mxfile>
